# xmcd
#
# Track frame offsets: 
#        150
#        22901
#        51156
#        75790
#        107304
#        137004
#        160277
#        191407
#        216152
#        241472
#        269620
#        299700
#
# Disc length: 4286 seconds
#
# Revision: 0
# Processed by: cddbd v1.5.2PL0 Copyright (c) Steve Scherf et al.
# Submitted via: ExactAudioCopy v1.1
#
DISCID=a310bc0c
DTITLE=Jarrod Lawson - Jarrod Lawson
DYEAR=2014
DGENRE=R&B
TTITLE0=Music and Its Magical Way
TTITLE1=Sleepwalkers
TTITLE2=He's There
TTITLE3=Walk In The Park
TTITLE4=All That Surrounds
TTITLE5=Think About Why
TTITLE6=Redemption
TTITLE7=Spiritual Eyes
TTITLE8=Together We'll Stand
TTITLE9=Needed
TTITLE10=Everything I Need
TTITLE11=Gotta Keep
EXTD=
EXTT0=
EXTT1=
EXTT2=
EXTT3=
EXTT4=
EXTT5=
EXTT6=
EXTT7=
EXTT8=
EXTT9=
EXTT10=
EXTT11=
PLAYORDER=
